<svg xmlns="http://www.w3.org/2000/svg" width="63.288" height="44.735" viewBox="0 0 63.288 44.735">
  <g id="Group_23" data-name="Group 23" transform="translate(-54.499 -304.558)">
    <path id="Intersection_1" data-name="Intersection 1" d="M46.247,69.944A25.482,25.482,0,0,0,16.824,59.706,24.887,24.887,0,0,1,12,44.944q0-.771.046-1.53A42.392,42.392,0,0,1,21.6,41.548l4.027-14.274A56.626,56.626,0,0,1,40.03,29.323L39.773,44.1a42.419,42.419,0,0,1,12.713,7.485l12.941-7.242a56.573,56.573,0,0,1,8.737,11.639L63.535,66.251q.827,1.814,1.479,3.694Z" transform="translate(42.997 278.848)" fill="rgba(255,255,255,0.24)" stroke="rgba(0,0,0,0)" stroke-miterlimit="10" stroke-width="1"/>
    <g id="Group_21" data-name="Group 21" transform="translate(71.397 304.558)">
      <path id="Path_7" data-name="Path 7" d="M27.322,50.8l1.737-2.482a8.192,8.192,0,0,0-2.146-1.98l-2.334,1.931a5.389,5.389,0,0,0-2.9-.34l-1.824-2.418a8.19,8.19,0,0,0-2.546,1.429l1.115,2.817a5.385,5.385,0,0,0-1.22,2.652l-2.864.987a8.2,8.2,0,0,0,.572,2.863l3.023-.19a5.386,5.386,0,0,0,2.145,1.98l.054,3.029a8.182,8.182,0,0,0,2.9.34l.754-2.934a5.385,5.385,0,0,0,2.545-1.429l2.9.885a8.174,8.174,0,0,0,1.22-2.652l-2.558-1.623a5.384,5.384,0,0,0-.572-2.862M23.517,55.01a2.026,2.026,0,1,1,.775-2.758,2.026,2.026,0,0,1-.775,2.758" transform="translate(-9.697 -21.249)" fill="#9894ab"/>
      <path id="Path_8" data-name="Path 8" d="M14.418,26.346l2.4-1.709a8.983,8.983,0,0,0-1.459-2.528L12.676,23.33a6.181,6.181,0,0,0-2.528-1.459l-.281-2.93a8.97,8.97,0,0,0-2.919,0l-.281,2.93A6.181,6.181,0,0,0,4.138,23.33L1.459,22.109A8.983,8.983,0,0,0,0,24.637l2.4,1.709a6.186,6.186,0,0,0,0,2.919L0,30.974A8.983,8.983,0,0,0,1.459,33.5l2.679-1.221a6.188,6.188,0,0,0,2.528,1.46l.281,2.93a8.969,8.969,0,0,0,2.919,0l.281-2.93a6.188,6.188,0,0,0,2.528-1.46L15.355,33.5a8.983,8.983,0,0,0,1.459-2.528l-2.4-1.708a6.186,6.186,0,0,0,0-2.919M8.407,30.632a2.826,2.826,0,1,1,2.826-2.826,2.826,2.826,0,0,1-2.826,2.826" transform="translate(-3 -8.789)" fill="#9894ab"/>
      <path id="Path_9" data-name="Path 9" d="M46.636,12.657a11.2,11.2,0,0,0,.005-2.88l-2.908-.4a8.4,8.4,0,0,0-1.117-2.7l1.8-2.3a11.192,11.192,0,0,0-2.032-2.04L40.047,4.115A8.394,8.394,0,0,0,37.35,3L36.993.1a11.2,11.2,0,0,0-2.88,0L33.718,3a8.394,8.394,0,0,0-2.7,1.117l-2.3-1.8a11.206,11.206,0,0,0-2.039,2.032l1.776,2.336a8.4,8.4,0,0,0-1.117,2.7l-2.9.357a11.2,11.2,0,0,0-.005,2.88l2.908.4a8.392,8.392,0,0,0,1.117,2.7l-1.8,2.3a11.226,11.226,0,0,0,2.032,2.04l2.336-1.776a8.4,8.4,0,0,0,2.7,1.117l.357,2.9a11.2,11.2,0,0,0,2.879.005l.4-2.908a8.4,8.4,0,0,0,2.7-1.117l2.3,1.8a11.189,11.189,0,0,0,2.039-2.032L42.616,15.71a8.392,8.392,0,0,0,1.117-2.7Zm-11.1,3.579A5.039,5.039,0,1,1,40.573,11.2a5.039,5.039,0,0,1-5.039,5.039" transform="translate(-14.364 0)" fill="#9894ab"/>
    </g>
  </g>
</svg>
