<svg id="Group_31" data-name="Group 31" xmlns="http://www.w3.org/2000/svg" width="28.899" height="37.301" viewBox="0 0 28.899 37.301">
  <path id="Path_16" data-name="Path 16" d="M0,30.909c0-2.1,6.469-3.807,14.449-3.807S28.9,28.806,28.9,30.909s-6.468,3.807-14.449,3.807S0,33.011,0,30.909" transform="translate(0 2.585)" fill="#504b71"/>
  <path id="Path_17" data-name="Path 17" d="M1.8,26.924l.943,3.043,1.391,2,21.2-5.673L22.86,5.206C21.618,4.364,21.4,3.009,21,.361L16.894,19.409Z" transform="translate(0.172 0.034)" fill="#615b7f"/>
  <path id="Path_18" data-name="Path 18" d="M23.3,4.525l-.857.326.387.332,2.2,20.936L4.47,31.6c-1.239-.918-1.762-2.575-2.066-4.463L22.261,21.12,21.235,0,3.831,5.721,1.275,27.507c-.148.317,2.477,5.057,2.831,4.732L25.89,26.594Z" transform="translate(0.121)" fill="#9794ab"/>
</svg>
