<svg xmlns="http://www.w3.org/2000/svg" width="45.429" height="40.064" viewBox="0 0 45.429 40.064">
  <g id="Group_22" data-name="Group 22" transform="translate(-68.61 -165.877)">
    <path id="Path_12" data-name="Path 12" d="M45.429,20.823c0,3.67-10.17,6.645-22.715,6.645S0,24.493,0,20.823c0-2.571,4.992-4.8,12.295-5.906C12.14,2.1,12.433,0,23.686,0S34.6,10.394,34.9,15.215c6.331,1.179,10.531,3.251,10.531,5.609" transform="translate(68.61 178.472)" fill="#fff" opacity="0.16"/>
    <path id="Path_11" data-name="Path 11" d="M19.587,26.675h3.03v2.891h-3.03Zm4.537,0h3.031v2.891H24.124Zm-4.537-4.74h3.03v2.891h-3.03Zm4.537,0h3.031v2.891H24.124ZM17.325,0,0,17.523l3.755.066V34.123H7.642V22h7.774V34.123H30.9V17.589l3.755-.066Z" transform="translate(74 165.877)" fill="#9894ab"/>
    <rect id="Rectangle_7" data-name="Rectangle 7" width="5" height="11" transform="translate(83 189)" fill="#9894ab"/>
  </g>
</svg>
